#!OML:ASF E:\id_vita\Project 1\Capture day 1\Session 1\Male1.ASF
:FULLY-SPECIFIED
:DEGREES
1023
root 20.1821 15.3906 -7.75114 24.561 57.5864 0.805454
lowerback 19.9619 1.62392 -10.0164
upperback 3.29544 0.122587 -0.275048
thorax -7.57988 0.367974 5.37034
lowerneck -14.8718 -5.66026 -0.552887
upperneck -4.48359 -7.43483 18.5508
head 1.92747 -3.11063 5.29005
rclavicle 6.36111e-015 -3.57812e-015
rhumerus 48.5499 52.2842 -55.5562
rradius 28.39
rwrist 9.71927
rhand -28.1718 46.3237
rfingers 7.12502
rthumb -1.55182 16.3496
lclavicle 6.36111e-015 -3.57812e-015
lhumerus 33.678 -18.0382 69.5338
lradius 16.4771
lwrist -3.2996
lhand -20.0671 50.5736
lfingers 7.12502
lthumb 6.27507 -279.539
rfemur -8.04416 0.965023 7.44506
rtibia 49.3601
rfoot 18.3807 0.12167
rtoes 4.25096
lfemur -53.2389 6.15413 -30.5756
ltibia 54.9868
lfoot -27.2392 4.27247
ltoes 31.1394
1024
root 20.1574 15.4322 -7.75652 23.5372 57.1831 0.347869
lowerback 20.2064 1.52033 -10.0781
upperback 3.23309 -0.0474698 -0.125212
thorax -7.75135 0.300154 5.61786
lowerneck -14.6954 -5.76211 -0.723904
upperneck -4.56449 -7.5374 18.898
head 1.91349 -3.16587 5.42112
rclavicle -6.91771e-014 -5.96354e-015
rhumerus 46.9891 53.1667 -56.684
rradius 28.8216
rwrist 8.36213
rhand -26.4548 46.6508
rfingers 7.12502
rthumb 0.106457 16.6711
lclavicle -6.91771e-014 -5.96354e-015
lhumerus 32.4131 -18.2932 69.399
lradius 16.8727
lwrist -2.07211
lhand -19.0584 49.8161
lfingers 7.12502
lthumb 7.24876 -280.328
rfemur -8.67163 1.29317 7.78534
rtibia 50.7862
rfoot 18.2547 -0.512155
rtoes 6.26912
lfemur -52.3803 6.52258 -30.2015
ltibia 54.3522
lfoot -26.9692 4.63973
ltoes 29.5795
1025
root 20.1551 15.4771 -7.77358 22.8962 56.5148 0.227155
lowerback 20.2288 1.42329 -10.142
upperback 3.11149 -0.201559 -0.113243
thorax -7.8719 0.237084 5.70936
lowerneck -14.7232 -5.83583 -0.558601
upperneck -4.3612 -7.70518 18.7477
head 1.97824 -3.24402 5.3309
rclavicle 9.54166e-015 1.90833e-014
rhumerus 45.4876 54.2921 -57.5277
rradius 29.0304
rwrist 7.91099
rhand -26.3504 46.441
rfingers 7.12502
rthumb 0.207287 16.4614
lclavicle 9.54166e-015 1.90833e-014
lhumerus 30.8635 -18.0651 69.845
lradius 17.051
lwrist -1.793
lhand -18.7417 48.9416
lfingers 7.12502
lthumb 7.5545 -281.213
rfemur -9.3377 1.36678 7.62647
rtibia 52.0955
rfoot 18.3049 -0.440604
rtoes 6.78531
lfemur -51.483 6.75667 -30.0877
ltibia 53.7079
lfoot -26.7447 4.97986
ltoes 29.2171
1026
root 20.1744 15.5172 -7.78269 21.9477 55.5872 -0.0992372
lowerback 20.0057 1.38138 -10.2537
upperback 3.11348 -0.255591 -0.098913
thorax -7.73909 0.206029 5.80101
lowerneck -13.5281 -6.03014 -1.47772
upperneck -5.30036 -7.65028 19.9865
head 1.61932 -3.30067 5.9036
rclavicle -7.7526e-014 1.59028e-015
rhumerus 44.1823 55.4756 -58.2517
rradius 29.1983
rwrist 7.44849
rhand -26.1962 46.3773
rfingers 7.12502
rthumb 0.356205 16.3978
lclavicle -7.7526e-014 1.59028e-015
lhumerus 29.3355 -17.9575 70.0787
lradius 17.192
lwrist -1.45468
lhand -18.9471 48.4194
lfingers 7.12502
lthumb 7.3562 -281.729
rfemur -9.73719 1.561 7.42628
rtibia 53.2531
rfoot 17.9443 0.657369
rtoes 4.4532
lfemur -50.3107 7.13122 -29.8736
ltibia 53.0529
lfoot -26.4593 5.17793
ltoes 31.3537
1027
root 20.1938 15.5537 -7.78698 21.0037 54.6059 -0.284928
lowerback 19.793 1.39272 -10.4551
upperback 3.22373 -0.251388 -0.108364
thorax -7.50072 0.196443 5.90145
lowerneck -14.3183 -5.96319 -0.667002
upperneck -4.63996 -7.81508 19.0471
head 1.86446 -3.33307 5.44253
rclavicle -5.00937e-014 7.07673e-014
rhumerus 42.5697 56.4454 -59.2309
rradius 29.4155
rwrist 7.04176
rhand -26.6831 46.0346
rfingers 7.12502
rthumb -0.114011 16.0549
lclavicle -5.00937e-014 7.07673e-014
lhumerus 27.9474 -18.1429 70.1628
lradius 17.265
lwrist -1.21285
lhand -19.1793 47.9402
lfingers 7.12502
lthumb 7.13212 -282.2
rfemur -9.92595 1.89012 7.18159
rtibia 54.2688
rfoot 17.5078 1.16653
rtoes 2.13668
lfemur -49.0037 7.54066 -29.697
ltibia 52.3917
lfoot -26.2802 5.25766
ltoes 33.643
1028
root 20.2177 15.5908 -7.7954 21.5502 53.3676 1.04784
lowerback 19.3998 1.46052 -11.4516
upperback 3.18687 -0.342028 -0.340582
thorax -7.30354 0.165352 6.23045
lowerneck -14.4136 -6.19862 -1.17056
upperneck -4.22441 -8.15725 19.5482
head 2.09217 -3.45389 5.64556
rclavicle 5.12864e-014 -1.59028e-014
rhumerus 40.2634 57.2249 -60.7924
rradius 29.6236
rwrist 6.74321
rhand -25.24 45.7931
rfingers 7.12502
rthumb 1.27977 15.8172
lclavicle 5.12864e-014 -1.59028e-014
lhumerus 26.3866 -18.382 70.5329
lradius 17.2073
lwrist -1.34068
lhand -19.4502 47.4193
lfingers 7.12502
lthumb 6.87059 -282.712
rfemur -10.3982 1.9578 5.81463
rtibia 55.2888
rfoot 17.0904 1.57998
rtoes 1.35213
lfemur -47.8664 7.84468 -30.646
ltibia 51.6722
lfoot -26.3517 5.95255
ltoes 32.6003
